<svg width="64" height="64" viewBox="0 0 64 64" fill="none" xmlns="http://www.w3.org/2000/svg">
  <rect width="64" height="64" rx="18" fill="#102334"/>
  <path d="M32 10C19.85 10 10 19.85 10 32s9.85 22 22 22 22-9.85 22-22S44.15 10 32 10Z" fill="#42E59A" fill-opacity=".12"/>
  <path d="m32 17 8.8 6.4-3.4 10.3H26.6l-3.4-10.3L32 17Z" fill="#42E59A"/>
  <path d="m23.2 23.4-7.1 5.2 2.7 8.4h8.8l-1-3.3-3.4-10.3ZM40.8 23.4l7.1 5.2-2.7 8.4h-8.8l1-3.3 3.4-10.3ZM26.6 33.7h10.8l3.4 10.4L32 50.5l-8.8-6.4 3.4-10.4Z" fill="#5EA5FF"/>
</svg>
